<?xml version="1.0" encoding="utf-8"?>
<!-- Generator: Adobe Illustrator 16.0.0, SVG Export Plug-In . SVG Version: 6.00 Build 0)  -->
<!DOCTYPE svg PUBLIC "-//W3C//DTD SVG 1.1//EN" "http://www.w3.org/Graphics/SVG/1.1/DTD/svg11.dtd">
<svg version="1.1" id="Layer_1" xmlns="http://www.w3.org/2000/svg" xmlns:xlink="http://www.w3.org/1999/xlink" x="0px" y="0px"
	 width="120px" height="60px" viewBox="0 0 120 60" enable-background="new 0 0 120 60" xml:space="preserve">
<g>
	<g>
		<path fill="#EF3F23" d="M81.937,40.046c0-2.678-2.18-4.858-4.857-4.858c-1.271,0-2.448,0.513-3.348,1.381
			c-3.311-2.191-7.796-3.59-12.759-3.766l2.712-8.575l7.341,1.729c-0.003,0.036-0.012,0.069-0.012,0.106
			c0,2.189,1.781,3.972,3.974,3.972c2.191,0,3.971-1.781,3.971-3.972c0-2.19-1.779-3.972-3.971-3.972
			c-1.682,0-3.115,1.054-3.693,2.531l-7.913-1.862c-0.345-0.083-0.698,0.116-0.805,0.458l-3.024,9.56
			c-5.192,0.063-9.895,1.468-13.352,3.721c-0.894-0.824-2.059-1.311-3.283-1.311c-2.677,0-4.854,2.181-4.854,4.858
			c0,1.734,0.932,3.317,2.405,4.182c-0.092,0.514-0.154,1.032-0.154,1.561c0,7.183,8.789,13.023,19.594,13.023
			s19.596-5.843,19.596-13.023c0-0.496-0.052-0.985-0.135-1.47C80.942,43.48,81.937,41.864,81.937,40.046z M74.987,23.451
			c1.44,0,2.609,1.171,2.609,2.612c0,1.441-1.169,2.612-2.609,2.612c-1.441,0-2.614-1.171-2.614-2.612
			C72.373,24.622,73.546,23.451,74.987,23.451z M39.423,40.046c0-1.929,1.568-3.498,3.494-3.498c0.787,0,1.542,0.276,2.155,0.759
			c-2.032,1.565-3.507,3.455-4.234,5.537C39.963,42.193,39.423,41.165,39.423,40.046z M59.908,57.453
			c-10.055,0-18.235-5.232-18.235-11.663c0-6.432,8.18-11.664,18.235-11.664s18.236,5.232,18.236,11.664
			C78.145,52.221,69.963,57.453,59.908,57.453z M79.019,42.945c-0.704-2.092-2.162-3.993-4.182-5.572
			c0.625-0.524,1.406-0.825,2.24-0.825c1.93,0,3.498,1.569,3.498,3.498C80.576,41.239,79.98,42.308,79.019,42.945z"/>
		<path fill="#EF3F23" d="M56.232,43.382c0-1.596-1.296-2.894-2.89-2.894c-1.595,0-2.893,1.298-2.893,2.894
			c0,1.591,1.297,2.889,2.893,2.889C54.937,46.271,56.232,44.975,56.232,43.382z"/>
		<path fill="#EF3F23" d="M66.67,40.488c-1.595,0-2.891,1.298-2.891,2.894c0,1.591,1.296,2.889,2.891,2.889
			c1.593,0,2.889-1.296,2.889-2.889C69.559,41.786,68.263,40.488,66.67,40.488z"/>
		<path fill="#EF3F23" d="M66.052,50.99c-1.188,1.188-3.16,1.767-6.028,1.767c-0.008,0-0.015,0.006-0.024,0.006
			c-0.008,0-0.015-0.006-0.023-0.006c-2.868,0-4.84-0.579-6.028-1.767c-0.267-0.267-0.697-0.267-0.961,0
			c-0.266,0.267-0.266,0.695-0.002,0.96c1.457,1.459,3.744,2.166,6.992,2.166c0.008,0,0.015-0.006,0.023-0.006
			c0.01,0,0.017,0.006,0.024,0.006c3.247,0,5.533-0.707,6.99-2.166c0.267-0.265,0.267-0.694,0-0.96
			C66.749,50.724,66.318,50.724,66.052,50.99z"/>
	</g>
</g>
<rect x="0.375" y="2.133" fill="none" width="119.625" height="18.367"/>
<text transform="matrix(1 0 0 1 10.5088 19.084)"><tspan x="0" y="0" fill="#1390CF" font-family="'OCRAStd'" font-size="23">R</tspan><tspan x="16.56" y="0" fill="#10A94B" font-family="'OCRAStd'" font-size="23">E</tspan><tspan x="33.119" y="0" fill="#D8E022" font-family="'OCRAStd'" font-size="23">A</tspan><tspan x="49.679" y="0" fill="#F15823" font-family="'OCRAStd'" font-size="23">D</tspan><tspan x="66.238" y="0" fill="#404DA1" font-family="'OCRAStd'" font-size="23">M</tspan><tspan x="82.798" y="0" fill="#EE3457" font-family="'OCRAStd'" font-size="23">E</tspan></text>
</svg>
